<?xml version="1.0" standalone="no"?>
<!DOCTYPE svg PUBLIC "-//W3C//DTD SVG 20010904//EN"
 "http://www.w3.org/TR/2001/REC-SVG-20010904/DTD/svg10.dtd">
<svg version="1.0" xmlns="http://www.w3.org/2000/svg"
 width="657.000000pt" height="657.000000pt" viewBox="0 0 657.000000 657.000000"
 preserveAspectRatio="xMidYMid meet">
<metadata>
Created by potrace 1.11, written by Peter Selinger 2001-2013
</metadata>
<g transform="translate(0.000000,657.000000) scale(0.100000,-0.100000)"
fill="#000000" stroke="none">
<path d="M2395 5624 c-16 -2 -66 -9 -110 -15 -44 -5 -119 -19 -166 -30 l-86
-20 29 -82 c160 -455 425 -982 806 -1602 139 -228 172 -276 129 -190 -28 57
-72 193 -64 201 12 12 98 -109 140 -196 53 -108 139 -269 210 -392 l49 -83 -6
65 c-3 36 -8 76 -12 90 -3 14 15 -9 41 -50 94 -148 232 -402 466 -861 130
-256 270 -524 310 -595 39 -71 95 -178 124 -239 147 -310 256 -428 397 -428
69 0 79 8 161 121 81 113 144 228 281 507 110 224 143 280 318 541 107 160
222 338 254 395 104 187 164 355 164 464 0 240 -176 629 -527 1164 -175 266
-577 828 -658 919 -25 29 -47 66 -55 95 -13 50 -63 117 -87 117 -7 0 -13 4
-13 10 0 5 -30 19 -67 31 -59 19 -94 22 -272 25 -112 2 -247 8 -300 15 -135
16 -1363 35 -1456 23z"/>
<path d="M1692 5378 c-7 -7 -12 -15 -12 -19 0 -4 -47 -85 -103 -181 -57 -95
-189 -322 -292 -503 -104 -182 -192 -332 -196 -335 -4 -3 -12 -17 -17 -31 -6
-14 -56 -106 -112 -205 -57 -98 -115 -201 -129 -227 -15 -26 -35 -57 -44 -68
-9 -10 -17 -23 -17 -28 0 -5 -15 -29 -33 -53 -51 -68 -123 -188 -164 -274 -36
-76 -38 -83 -38 -184 0 -128 20 -195 111 -379 74 -149 164 -294 378 -606 136
-198 176 -266 288 -490 176 -351 252 -466 347 -527 57 -35 88 -35 137 0 62 45
118 129 217 327 31 61 124 209 207 330 357 517 462 685 571 910 112 231 144
372 115 516 -58 289 -216 594 -565 1094 -267 382 -454 671 -454 703 0 6 -3 12
-7 12 -4 0 -31 52 -61 115 -52 110 -55 115 -84 115 -17 0 -36 -5 -43 -12z"/>
<path d="M3163 2848 c-104 -67 -157 -115 -254 -233 -229 -278 -480 -729 -680
-1225 -48 -118 -59 -139 -60 -110 -1 33 -2 32 -36 -38 -20 -40 -38 -93 -41
-117 -3 -31 -9 -45 -20 -45 -24 0 -8 -71 23 -98 33 -28 94 -29 455 -3 633 46
1095 52 1340 17 112 -16 336 -21 344 -8 25 40 -115 352 -258 575 -40 63 -75
120 -78 128 -3 8 -34 53 -69 100 -267 361 -487 732 -533 899 -28 103 -61 190
-71 190 -6 0 -34 -15 -62 -32z"/>
</g>
</svg>
